# Blender 4.3.2
# www.blender.org
o left_wing
v -0.064032 -0.096049 -0.000000
v -0.064032 -0.096049 0.256129
v 0.576290 1.184596 -0.000000
v 0.000000 -0.096049 0.256129
v 0.064032 -0.096049 0.256129
v 0.128064 1.184596 -0.000000
v 0.192097 1.184596 -0.000000
v 0.320161 1.184596 -0.000000
v 0.384193 1.184596 -0.000000
v 0.448226 1.184596 -0.000000
v 0.512258 1.184596 -0.000000
v 0.000000 -0.096049 -0.000000
v 0.064032 -0.096049 -0.000000
v 0.128064 -0.096049 -0.000000
v 0.320161 -0.096049 -0.000000
v -0.064032 -0.032016 0.256129
v -0.064032 0.032016 0.256129
v -0.064032 -0.032016 -0.000000
v -0.064032 0.032016 -0.000000
v -0.064032 0.224113 -0.000000
v -0.064032 0.480242 -0.000000
v -0.064032 0.800403 -0.000000
v 0.576290 0.480242 -0.000000
v 0.576290 0.800403 -0.000000
v 0.576290 0.992499 -0.000000
v 0.576290 1.120564 -0.000000
v 0.512258 1.120564 -0.000000
v 0.512258 0.992499 -0.000000
v 0.512258 0.800403 -0.000000
v 0.512258 0.480242 -0.000000
v 0.512258 0.224113 -0.000000
v 0.448226 1.120564 -0.000000
v 0.448226 0.992499 -0.000000
v 0.448226 0.800403 -0.000000
v 0.448226 0.480242 -0.000000
v 0.448226 0.224113 -0.000000
v 0.448226 0.032016 -0.000000
v 0.384193 1.120564 -0.000000
v 0.384193 0.992499 -0.000000
v 0.384193 0.800403 -0.000000
v 0.384193 0.480242 -0.000000
v 0.384193 0.224113 -0.000000
v 0.384193 0.032016 -0.000000
v 0.384193 -0.032016 -0.000000
v 0.320161 1.120564 -0.000000
v 0.320161 0.992499 -0.000000
v 0.320161 0.800403 -0.000000
v 0.320161 0.480242 -0.000000
v 0.320161 0.224113 -0.000000
v 0.320161 0.032016 -0.000000
v 0.320161 -0.032016 -0.000000
v 0.128064 1.120564 -0.000000
v 0.128064 0.992499 -0.000000
v 0.128064 0.800403 -0.000000
v 0.128064 0.480242 -0.000000
v 0.128064 0.224113 -0.000000
v 0.128064 0.032016 -0.000000
v 0.128064 -0.032016 -0.000000
v 0.064032 1.120564 -0.000000
v 0.064032 0.992499 -0.000000
v 0.064032 0.800403 -0.000000
v 0.064032 0.480242 -0.000000
v 0.064032 0.224113 -0.000000
v 0.064032 0.032016 -0.000000
v 0.064032 -0.032016 -0.000000
v 0.000000 0.992499 -0.000000
v 0.000000 0.800403 -0.000000
v 0.000000 0.480242 -0.000000
v 0.000000 0.224113 -0.000000
v 0.000000 0.032016 -0.000000
v 0.000000 -0.032016 -0.000000
v -0.064032 -0.096049 0.128064
v 0.576290 1.184596 0.128064
v 0.512258 1.184596 0.128064
v 0.448226 1.184596 0.128064
v 0.384193 1.184596 0.128064
v 0.320161 1.184596 0.128064
v 0.192097 1.184596 0.128064
v 0.128064 -0.096049 0.128064
v 0.064032 -0.096049 0.128064
v 0.000000 -0.096049 0.128064
v 0.576290 1.120564 0.128064
v 0.576290 0.992499 0.128064
v 0.576290 0.800403 0.128064
v 0.576290 0.480242 0.128064
v -0.064032 0.480242 0.128064
v -0.064032 0.224113 0.128064
v -0.064032 0.032016 0.128064
v -0.064032 -0.032016 0.128064
vn -1.0000 -0.0000 -0.0000
vn -0.0000 -0.0000 -1.0000
vn -0.0000 -1.0000 -0.0000
vn -0.0000 1.0000 -0.0000
vn 1.0000 -0.0000 -0.0000
vt 0.546875 0.906250
vt 0.546875 0.937500
vt 0.531250 0.937500
vt 0.531250 0.906250
vt 0.578125 0.906250
vt 0.578125 0.937500
vt 0.562500 0.937500
vt 0.562500 0.906250
vt 0.515625 0.968750
vt 0.515625 0.937500
vt 0.531250 0.968750
vt 0.531250 1.000000
vt 0.546875 1.000000
vt 0.546875 0.968750
vt 0.562500 1.000000
vt 0.562500 0.968750
vt 0.578125 1.000000
vt 0.578125 0.968750
vt 0.593750 1.000000
vt 0.593750 0.968750
vt 0.500000 0.968750
vt 0.500000 0.937500
vt 0.609375 0.906250
vt 0.656250 0.906250
vt 0.656250 0.937500
vt 0.609375 0.937500
vt 0.593750 0.937500
vt 0.593750 0.906250
vt 0.578125 0.406250
vt 0.593750 0.406250
vt 0.593750 0.500000
vt 0.578125 0.500000
vt 0.593750 0.656250
vt 0.578125 0.656250
vt 0.593750 0.781250
vt 0.578125 0.781250
vt 0.593750 0.875000
vt 0.578125 0.875000
vt 0.609375 0.343750
vt 0.656250 0.343750
vt 0.656250 0.406250
vt 0.609375 0.406250
vt 0.609375 0.500000
vt 0.609375 0.656250
vt 0.609375 0.781250
vt 0.609375 0.875000
vt 0.625000 0.312500
vt 0.609375 0.312500
vt 0.656250 0.500000
vt 0.656250 0.656250
vt 0.656250 0.781250
vt 0.656250 0.875000
vt 0.656250 0.312500
vt 0.671875 0.312500
vt 0.671875 0.343750
vt 0.687500 0.343750
vt 0.687500 0.406250
vt 0.671875 0.406250
vt 0.671875 0.500000
vt 0.671875 0.656250
vt 0.671875 0.781250
vt 0.671875 0.875000
vt 0.671875 0.906250
vt 0.687500 0.312500
vt 0.703125 0.343750
vt 0.703125 0.406250
vt 0.687500 0.500000
vt 0.687500 0.656250
vt 0.687500 0.781250
vt 0.687500 0.875000
vt 0.703125 0.312500
vt 0.718750 0.343750
vt 0.718750 0.406250
vt 0.703125 0.500000
vt 0.703125 0.656250
vt 0.703125 0.781250
vt 0.718750 0.312500
vt 0.343750 0.406250
vt 0.343750 0.343750
vt 0.359375 0.343750
vt 0.359375 0.406250
vt 0.718750 0.500000
vt 0.718750 0.656250
vt 0.359375 0.312500
vt 0.343750 0.312500
vt 0.343750 0.500000
vt 0.359375 0.500000
vt 0.593750 0.343750
vt 0.343750 0.656250
vt 0.359375 0.656250
vt 0.562500 0.656250
vt 0.562500 0.500000
vt 0.562500 0.781250
vt 0.562500 0.875000
vt 0.546875 0.875000
vt 0.531250 0.875000
vt 0.546875 0.781250
vt 0.546875 0.656250
vt 0.500000 1.000000
vt 0.515625 1.000000
vt 0.484375 1.000000
vt 0.484375 0.968750
vt 0.625000 0.968750
vt 0.625000 1.000000
s 0
f 89/1/1 72/2/1 2/3/1 16/4/1
f 71/5/2 12/6/2 1/7/2 18/8/2
f 81/9/3 4/10/3 2/3/3 72/11/3
f 73/11/4 3/12/4 11/13/4 74/14/4
f 74/14/4 11/13/4 10/15/4 75/16/4
f 75/16/4 10/15/4 9/17/4 76/18/4
f 76/18/4 9/17/4 8/19/4 77/20/4
f 80/21/3 5/22/3 4/10/3 81/9/3
f 58/23/2 51/24/2 15/25/2 14/26/2
f 58/23/2 14/26/2 13/27/2 65/28/2
f 65/28/2 13/27/2 12/6/2 71/5/2
f 66/29/2 60/30/2 61/31/2 67/32/2
f 67/32/2 61/31/2 62/33/2 68/34/2
f 68/34/2 62/33/2 63/35/2 69/36/2
f 69/36/2 63/35/2 64/37/2 70/38/2
f 64/37/2 65/28/2 71/5/2 70/38/2
f 52/39/2 45/40/2 46/41/2 53/42/2
f 60/30/2 53/42/2 54/43/2 61/31/2
f 61/31/2 54/43/2 55/44/2 62/33/2
f 62/33/2 55/44/2 56/45/2 63/35/2
f 63/35/2 56/45/2 57/46/2 64/37/2
f 57/46/2 58/23/2 65/28/2 64/37/2
f 7/47/2 52/39/2 6/48/2
f 53/42/2 46/41/2 47/49/2 54/43/2
f 54/43/2 47/49/2 48/50/2 55/44/2
f 55/44/2 48/50/2 49/51/2 56/45/2
f 56/45/2 49/51/2 50/52/2 57/46/2
f 50/52/2 51/24/2 58/23/2 57/46/2
f 8/53/2 45/40/2 52/39/2 7/47/2
f 9/54/2 38/55/2 45/40/2 8/53/2
f 38/55/2 32/56/2 33/57/2 39/58/2
f 46/41/2 39/58/2 40/59/2 47/49/2
f 47/49/2 40/59/2 41/60/2 48/50/2
f 48/50/2 41/60/2 42/61/2 49/51/2
f 49/51/2 42/61/2 43/62/2 50/52/2
f 43/62/2 44/63/2 51/24/2 50/52/2
f 10/64/2 32/56/2 38/55/2 9/54/2
f 32/56/2 27/65/2 28/66/2 33/57/2
f 39/58/2 33/57/2 34/67/2 40/59/2
f 40/59/2 34/67/2 35/68/2 41/60/2
f 41/60/2 35/68/2 36/69/2 42/61/2
f 42/61/2 36/69/2 37/70/2 43/62/2
f 11/71/2 27/65/2 32/56/2 10/64/2
f 27/65/2 26/72/2 25/73/2 28/66/2
f 33/57/2 28/66/2 29/74/2 34/67/2
f 34/67/2 29/74/2 30/75/2 35/68/2
f 35/68/2 30/75/2 31/76/2 36/69/2
f 3/77/2 26/72/2 27/65/2 11/71/2
f 25/78/5 26/79/5 82/80/5 83/81/5
f 28/66/2 25/73/2 24/82/2 29/74/2
f 29/74/2 24/82/2 23/83/2 30/75/2
f 73/84/5 82/80/5 26/79/5 3/85/5
f 24/86/5 25/78/5 83/81/5 84/87/5
f 59/88/2 52/39/2 53/42/2 60/30/2
f 23/89/5 24/86/5 84/87/5 85/90/5
f 21/91/2 22/92/2 67/32/2 68/34/2
f 20/93/2 21/91/2 68/34/2 69/36/2
f 19/94/2 20/93/2 69/36/2 70/38/2
f 70/38/2 71/5/2 18/8/2 19/94/2
f 88/95/1 89/1/1 16/4/1 17/96/1
f 19/94/1 18/8/1 89/1/1 88/95/1
f 20/93/1 19/94/1 88/95/1 87/97/1
f 21/91/1 20/93/1 87/97/1 86/98/1
f 13/99/3 80/21/3 81/9/3 12/100/3
f 14/101/3 79/102/3 80/21/3 13/99/3
f 12/100/3 81/9/3 72/11/3 1/12/3
f 18/8/1 1/7/1 72/2/1 89/1/1
f 45/40/2 38/55/2 39/58/2 46/41/2
f 78/103/4 77/20/4 8/19/4 7/104/4
